<svg width="299" height="273" viewBox="0 0 299 273" fill="none" xmlns="http://www.w3.org/2000/svg">
<path d="M29.1664 267.925V262.891H30.1039V267.925C30.1039 268.394 30.0079 268.789 29.8158 269.111C29.6238 269.434 29.3585 269.679 29.0199 269.849C28.6846 270.015 28.2989 270.098 27.8627 270.098C27.4265 270.098 27.0391 270.023 26.7006 269.873C26.362 269.723 26.0967 269.495 25.9047 269.189C25.7126 268.883 25.6166 268.498 25.6166 268.032H26.559C26.559 268.332 26.6143 268.577 26.725 268.77C26.8357 268.962 26.9887 269.103 27.184 269.194C27.3826 269.285 27.6088 269.331 27.8627 269.331C28.1101 269.331 28.3314 269.279 28.5268 269.175C28.7253 269.067 28.8816 268.91 28.9955 268.701C29.1094 268.49 29.1664 268.231 29.1664 267.925ZM35.0791 269.097V266.377C35.0791 266.169 35.0368 265.988 34.9521 265.835C34.8708 265.679 34.7471 265.558 34.5811 265.474C34.415 265.389 34.21 265.347 33.9658 265.347C33.738 265.347 33.5378 265.386 33.3652 265.464C33.196 265.542 33.0625 265.645 32.9648 265.771C32.8704 265.898 32.8232 266.035 32.8232 266.182H31.9199C31.9199 265.993 31.9688 265.806 32.0664 265.62C32.1641 265.435 32.304 265.267 32.4863 265.117C32.6719 264.964 32.8932 264.844 33.1504 264.756C33.4108 264.665 33.7005 264.619 34.0195 264.619C34.4036 264.619 34.7422 264.684 35.0352 264.814C35.3314 264.945 35.5625 265.142 35.7285 265.405C35.8978 265.666 35.9824 265.993 35.9824 266.387V268.848C35.9824 269.023 35.9971 269.211 36.0264 269.409C36.0589 269.608 36.1061 269.779 36.168 269.922V270H35.2256C35.18 269.896 35.1442 269.757 35.1182 269.585C35.0921 269.409 35.0791 269.246 35.0791 269.097ZM35.2354 266.797L35.2451 267.432H34.332C34.0749 267.432 33.8454 267.453 33.6436 267.495C33.4417 267.534 33.2725 267.594 33.1357 267.676C32.999 267.757 32.8949 267.86 32.8232 267.983C32.7516 268.104 32.7158 268.245 32.7158 268.408C32.7158 268.574 32.7533 268.726 32.8281 268.862C32.903 268.999 33.0153 269.108 33.165 269.189C33.318 269.268 33.5052 269.307 33.7266 269.307C34.0033 269.307 34.2474 269.248 34.459 269.131C34.6706 269.014 34.8382 268.87 34.9619 268.701C35.0889 268.532 35.1572 268.368 35.167 268.208L35.5527 268.643C35.5299 268.779 35.4681 268.931 35.3672 269.097C35.2663 269.263 35.1312 269.422 34.9619 269.575C34.7959 269.725 34.5973 269.85 34.3662 269.951C34.1383 270.049 33.8812 270.098 33.5947 270.098C33.2367 270.098 32.9225 270.028 32.6523 269.888C32.3854 269.748 32.1771 269.561 32.0273 269.326C31.8809 269.089 31.8076 268.823 31.8076 268.53C31.8076 268.247 31.863 267.998 31.9736 267.783C32.0843 267.565 32.2438 267.384 32.4521 267.241C32.6605 267.095 32.9111 266.984 33.2041 266.909C33.4971 266.834 33.8242 266.797 34.1855 266.797H35.2354ZM38.7066 265.845V270H37.8033V264.717H38.6578L38.7066 265.845ZM38.4918 267.158L38.1158 267.144C38.1191 266.782 38.1728 266.449 38.277 266.143C38.3811 265.833 38.5276 265.565 38.7164 265.337C38.9052 265.109 39.1298 264.933 39.3902 264.81C39.6539 264.683 39.9452 264.619 40.2643 264.619C40.5247 264.619 40.7591 264.655 40.9674 264.727C41.1757 264.795 41.3531 264.906 41.4996 265.059C41.6493 265.212 41.7633 265.41 41.8414 265.654C41.9195 265.895 41.9586 266.19 41.9586 266.538V270H41.0504V266.528C41.0504 266.252 41.0097 266.03 40.9283 265.864C40.8469 265.695 40.7281 265.573 40.5719 265.498C40.4156 265.42 40.2236 265.381 39.9957 265.381C39.7711 265.381 39.566 265.428 39.3805 265.522C39.1982 265.617 39.0403 265.747 38.9068 265.913C38.7766 266.079 38.6741 266.27 38.5992 266.484C38.5276 266.696 38.4918 266.921 38.4918 267.158Z" fill="#4B5050" fill-opacity="0.7"/>
<path d="M50.3986 262.891V270H49.4562V262.891H50.3986ZM53.3771 266.089V266.86H50.1935V266.089H53.3771ZM53.8605 262.891V263.662H50.1935V262.891H53.8605ZM57.3318 270.098C56.9639 270.098 56.6303 270.036 56.3308 269.912C56.0346 269.785 55.7791 269.608 55.5642 269.38C55.3526 269.152 55.1899 268.882 55.0759 268.569C54.962 268.257 54.905 267.915 54.905 267.544V267.339C54.905 266.909 54.9685 266.527 55.0955 266.191C55.2224 265.853 55.3949 265.566 55.613 265.332C55.8311 265.098 56.0785 264.92 56.3552 264.8C56.6319 264.679 56.9184 264.619 57.2146 264.619C57.5922 264.619 57.9177 264.684 58.1912 264.814C58.4679 264.945 58.6941 265.127 58.8699 265.361C59.0457 265.592 59.1759 265.866 59.2605 266.182C59.3451 266.494 59.3875 266.836 59.3875 267.207V267.612H55.4421V266.875H58.4841V266.807C58.4711 266.572 58.4223 266.344 58.3376 266.123C58.2563 265.902 58.1261 265.719 57.947 265.576C57.768 265.433 57.5238 265.361 57.2146 265.361C57.0095 265.361 56.8207 265.405 56.6482 265.493C56.4757 265.578 56.3276 265.705 56.2039 265.874C56.0802 266.043 55.9841 266.25 55.9158 266.494C55.8474 266.738 55.8132 267.02 55.8132 267.339V267.544C55.8132 267.795 55.8474 268.031 55.9158 268.252C55.9874 268.47 56.0899 268.662 56.2234 268.828C56.3601 268.994 56.5245 269.124 56.7166 269.219C56.9119 269.313 57.1332 269.36 57.3806 269.36C57.6996 269.36 57.9698 269.295 58.1912 269.165C58.4125 269.035 58.6062 268.861 58.7722 268.643L59.3191 269.077C59.2052 269.25 59.0603 269.414 58.8845 269.57C58.7087 269.727 58.4923 269.854 58.2351 269.951C57.9812 270.049 57.6801 270.098 57.3318 270.098ZM60.8373 262.5H61.7455V268.975L61.6673 270H60.8373V262.5ZM65.3148 267.314V267.417C65.3148 267.801 65.2692 268.158 65.1781 268.486C65.0869 268.812 64.9535 269.095 64.7777 269.336C64.6019 269.577 64.3871 269.764 64.1332 269.897C63.8792 270.031 63.5879 270.098 63.2591 270.098C62.9238 270.098 62.6292 270.041 62.3753 269.927C62.1247 269.81 61.9131 269.642 61.7406 269.424C61.5681 269.206 61.4297 268.942 61.3255 268.633C61.2246 268.324 61.1546 267.975 61.1156 267.588V267.139C61.1546 266.748 61.2246 266.398 61.3255 266.089C61.4297 265.78 61.5681 265.516 61.7406 265.298C61.9131 265.076 62.1247 264.909 62.3753 264.795C62.626 264.678 62.9173 264.619 63.2494 264.619C63.5814 264.619 63.876 264.684 64.1332 264.814C64.3903 264.941 64.6052 265.124 64.7777 265.361C64.9535 265.599 65.0869 265.884 65.1781 266.216C65.2692 266.545 65.3148 266.911 65.3148 267.314ZM64.4066 267.417V267.314C64.4066 267.051 64.3822 266.803 64.3334 266.572C64.2845 266.338 64.2064 266.133 64.099 265.957C63.9916 265.778 63.85 265.638 63.6742 265.537C63.4984 265.433 63.2819 265.381 63.0248 265.381C62.7969 265.381 62.5983 265.42 62.4291 265.498C62.263 265.576 62.1214 265.682 62.0042 265.815C61.8871 265.946 61.791 266.095 61.7162 266.265C61.6445 266.431 61.5908 266.603 61.555 266.782V267.959C61.6071 268.187 61.6917 268.407 61.8089 268.618C61.9294 268.826 62.0889 268.997 62.2875 269.131C62.4893 269.264 62.7383 269.331 63.0345 269.331C63.2787 269.331 63.487 269.282 63.6595 269.185C63.8353 269.084 63.9769 268.945 64.0843 268.77C64.195 268.594 64.2764 268.39 64.3285 268.159C64.3806 267.928 64.4066 267.681 64.4066 267.417Z" fill="#4B5050" fill-opacity="0.7"/>
<path d="M72.8437 262.891H73.7567L76.0858 268.687L78.4101 262.891H79.328L76.4374 270H75.7245L72.8437 262.891ZM72.5458 262.891H73.3515L73.4833 267.227V270H72.5458V262.891ZM78.8153 262.891H79.621V270H78.6835V267.227L78.8153 262.891ZM84.6548 269.097V266.377C84.6548 266.169 84.6125 265.988 84.5278 265.835C84.4465 265.679 84.3228 265.558 84.1567 265.474C83.9907 265.389 83.7856 265.347 83.5415 265.347C83.3136 265.347 83.1134 265.386 82.9409 265.464C82.7716 265.542 82.6382 265.645 82.5405 265.771C82.4461 265.898 82.3989 266.035 82.3989 266.182H81.4956C81.4956 265.993 81.5444 265.806 81.6421 265.62C81.7397 265.435 81.8797 265.267 82.062 265.117C82.2476 264.964 82.4689 264.844 82.7261 264.756C82.9865 264.665 83.2762 264.619 83.5952 264.619C83.9793 264.619 84.3179 264.684 84.6108 264.814C84.9071 264.945 85.1382 265.142 85.3042 265.405C85.4735 265.666 85.5581 265.993 85.5581 266.387V268.848C85.5581 269.023 85.5728 269.211 85.6021 269.409C85.6346 269.608 85.6818 269.779 85.7437 269.922V270H84.8013C84.7557 269.896 84.7199 269.757 84.6938 269.585C84.6678 269.409 84.6548 269.246 84.6548 269.097ZM84.811 266.797L84.8208 267.432H83.9077C83.6506 267.432 83.4211 267.453 83.2192 267.495C83.0174 267.534 82.8481 267.594 82.7114 267.676C82.5747 267.757 82.4705 267.86 82.3989 267.983C82.3273 268.104 82.2915 268.245 82.2915 268.408C82.2915 268.574 82.3289 268.726 82.4038 268.862C82.4787 268.999 82.591 269.108 82.7407 269.189C82.8937 269.268 83.0809 269.307 83.3022 269.307C83.5789 269.307 83.8231 269.248 84.0347 269.131C84.2463 269.014 84.4139 268.87 84.5376 268.701C84.6646 268.532 84.7329 268.368 84.7427 268.208L85.1284 268.643C85.1056 268.779 85.0438 268.931 84.9429 269.097C84.842 269.263 84.7069 269.422 84.5376 269.575C84.3716 269.725 84.173 269.85 83.9419 269.951C83.714 270.049 83.4569 270.098 83.1704 270.098C82.8123 270.098 82.4982 270.028 82.228 269.888C81.9611 269.748 81.7528 269.561 81.603 269.326C81.4565 269.089 81.3833 268.823 81.3833 268.53C81.3833 268.247 81.4386 267.998 81.5493 267.783C81.66 267.565 81.8195 267.384 82.0278 267.241C82.2362 267.095 82.4868 266.984 82.7798 266.909C83.0728 266.834 83.3999 266.797 83.7612 266.797H84.811ZM88.2823 265.547V270H87.379V264.717H88.2579L88.2823 265.547ZM89.9327 264.688L89.9278 265.527C89.853 265.511 89.7813 265.501 89.713 265.498C89.6479 265.492 89.573 265.488 89.4884 265.488C89.28 265.488 89.0961 265.521 88.9366 265.586C88.7771 265.651 88.642 265.742 88.5313 265.859C88.4207 265.977 88.3328 266.117 88.2677 266.279C88.2058 266.439 88.1651 266.615 88.1456 266.807L87.8917 266.953C87.8917 266.634 87.9226 266.335 87.9845 266.055C88.0496 265.775 88.1489 265.527 88.2823 265.312C88.4158 265.094 88.5851 264.925 88.7901 264.805C88.9985 264.681 89.2459 264.619 89.5323 264.619C89.5974 264.619 89.6723 264.627 89.7569 264.644C89.8416 264.657 89.9002 264.671 89.9327 264.688Z" fill="#4B5050" fill-opacity="0.7"/>
<path d="M99.3935 263.521L97.0399 270H96.078L98.788 262.891H99.4081L99.3935 263.521ZM101.366 270L99.0077 263.521L98.9931 262.891H99.6132L102.333 270H101.366ZM101.244 267.368V268.14H97.2499V267.368H101.244ZM104.452 265.732V272.031H103.543V264.717H104.374L104.452 265.732ZM108.011 267.314V267.417C108.011 267.801 107.966 268.158 107.875 268.486C107.783 268.812 107.65 269.095 107.474 269.336C107.302 269.577 107.088 269.764 106.834 269.897C106.581 270.031 106.289 270.098 105.96 270.098C105.625 270.098 105.329 270.042 105.072 269.932C104.815 269.821 104.597 269.66 104.417 269.448C104.238 269.237 104.095 268.983 103.988 268.687C103.884 268.39 103.812 268.057 103.773 267.686V267.139C103.812 266.748 103.885 266.398 103.993 266.089C104.1 265.78 104.242 265.516 104.417 265.298C104.597 265.076 104.813 264.909 105.067 264.795C105.321 264.678 105.614 264.619 105.946 264.619C106.278 264.619 106.572 264.684 106.83 264.814C107.087 264.941 107.303 265.124 107.479 265.361C107.655 265.599 107.787 265.884 107.875 266.216C107.966 266.545 108.011 266.911 108.011 267.314ZM107.103 267.417V267.314C107.103 267.051 107.075 266.803 107.02 266.572C106.965 266.338 106.878 266.133 106.761 265.957C106.647 265.778 106.501 265.638 106.322 265.537C106.143 265.433 105.93 265.381 105.682 265.381C105.454 265.381 105.256 265.42 105.086 265.498C104.92 265.576 104.779 265.682 104.662 265.815C104.544 265.946 104.448 266.095 104.374 266.265C104.302 266.431 104.248 266.603 104.212 266.782V268.047C104.278 268.275 104.369 268.49 104.486 268.691C104.603 268.89 104.759 269.051 104.955 269.175C105.15 269.295 105.396 269.355 105.692 269.355C105.936 269.355 106.146 269.305 106.322 269.204C106.501 269.1 106.647 268.958 106.761 268.779C106.878 268.6 106.965 268.395 107.02 268.164C107.075 267.93 107.103 267.681 107.103 267.417ZM110.467 265.547V270H109.564V264.717H110.442L110.467 265.547ZM112.117 264.688L112.112 265.527C112.038 265.511 111.966 265.501 111.898 265.498C111.832 265.492 111.758 265.488 111.673 265.488C111.465 265.488 111.281 265.521 111.121 265.586C110.962 265.651 110.827 265.742 110.716 265.859C110.605 265.977 110.517 266.117 110.452 266.279C110.39 266.439 110.35 266.615 110.33 266.807L110.076 266.953C110.076 266.634 110.107 266.335 110.169 266.055C110.234 265.775 110.333 265.527 110.467 265.312C110.6 265.094 110.77 264.925 110.975 264.805C111.183 264.681 111.43 264.619 111.717 264.619C111.782 264.619 111.857 264.627 111.942 264.644C112.026 264.657 112.085 264.671 112.117 264.688Z" fill="#4B5050" fill-opacity="0.7"/>
<path d="M119.109 262.891H120.022L122.351 268.687L124.675 262.891H125.593L122.703 270H121.99L119.109 262.891ZM118.811 262.891H119.617L119.749 267.227V270H118.811V262.891ZM125.081 262.891H125.886V270H124.949V267.227L125.081 262.891ZM130.92 269.097V266.377C130.92 266.169 130.878 265.988 130.793 265.835C130.712 265.679 130.588 265.558 130.422 265.474C130.256 265.389 130.051 265.347 129.807 265.347C129.579 265.347 129.379 265.386 129.206 265.464C129.037 265.542 128.904 265.645 128.806 265.771C128.712 265.898 128.664 266.035 128.664 266.182H127.761C127.761 265.993 127.81 265.806 127.907 265.62C128.005 265.435 128.145 265.267 128.327 265.117C128.513 264.964 128.734 264.844 128.991 264.756C129.252 264.665 129.542 264.619 129.861 264.619C130.245 264.619 130.583 264.684 130.876 264.814C131.172 264.945 131.404 265.142 131.57 265.405C131.739 265.666 131.823 265.993 131.823 266.387V268.848C131.823 269.023 131.838 269.211 131.867 269.409C131.9 269.608 131.947 269.779 132.009 269.922V270H131.067C131.021 269.896 130.985 269.757 130.959 269.585C130.933 269.409 130.92 269.246 130.92 269.097ZM131.076 266.797L131.086 267.432H130.173C129.916 267.432 129.686 267.453 129.485 267.495C129.283 267.534 129.114 267.594 128.977 267.676C128.84 267.757 128.736 267.86 128.664 267.983C128.593 268.104 128.557 268.245 128.557 268.408C128.557 268.574 128.594 268.726 128.669 268.862C128.744 268.999 128.856 269.108 129.006 269.189C129.159 269.268 129.346 269.307 129.568 269.307C129.844 269.307 130.088 269.248 130.3 269.131C130.512 269.014 130.679 268.87 130.803 268.701C130.93 268.532 130.998 268.368 131.008 268.208L131.394 268.643C131.371 268.779 131.309 268.931 131.208 269.097C131.107 269.263 130.972 269.422 130.803 269.575C130.637 269.725 130.438 269.85 130.207 269.951C129.979 270.049 129.722 270.098 129.436 270.098C129.078 270.098 128.764 270.028 128.493 269.888C128.226 269.748 128.018 269.561 127.868 269.326C127.722 269.089 127.649 268.823 127.649 268.53C127.649 268.247 127.704 267.998 127.815 267.783C127.925 267.565 128.085 267.384 128.293 267.241C128.502 267.095 128.752 266.984 129.045 266.909C129.338 266.834 129.665 266.797 130.027 266.797H131.076ZM135.051 269.453L136.52 264.717H137.487L135.368 270.815C135.319 270.946 135.254 271.086 135.173 271.235C135.095 271.388 134.994 271.533 134.87 271.67C134.746 271.807 134.597 271.917 134.421 272.002C134.248 272.09 134.042 272.134 133.801 272.134C133.729 272.134 133.638 272.124 133.527 272.104C133.417 272.085 133.338 272.069 133.293 272.056L133.288 271.323C133.314 271.326 133.355 271.33 133.41 271.333C133.469 271.34 133.509 271.343 133.532 271.343C133.737 271.343 133.911 271.315 134.055 271.26C134.198 271.208 134.318 271.118 134.416 270.991C134.517 270.868 134.603 270.697 134.675 270.479L135.051 269.453ZM133.972 264.717L135.344 268.818L135.578 269.771L134.929 270.103L132.985 264.717H133.972Z" fill="#4B5050" fill-opacity="0.7"/>
<path d="M147.127 267.925V262.891H148.065V267.925C148.065 268.394 147.969 268.789 147.777 269.111C147.585 269.434 147.319 269.679 146.981 269.849C146.646 270.015 146.26 270.098 145.824 270.098C145.387 270.098 145 270.023 144.662 269.873C144.323 269.723 144.058 269.495 143.866 269.189C143.674 268.883 143.578 268.498 143.578 268.032H144.52C144.52 268.332 144.575 268.577 144.686 268.77C144.797 268.962 144.95 269.103 145.145 269.194C145.343 269.285 145.57 269.331 145.824 269.331C146.071 269.331 146.292 269.279 146.488 269.175C146.686 269.067 146.843 268.91 146.956 268.701C147.07 268.49 147.127 268.231 147.127 267.925ZM153.157 268.779V264.717H154.065V270H153.201L153.157 268.779ZM153.328 267.666L153.704 267.656C153.704 268.008 153.667 268.333 153.592 268.633C153.52 268.929 153.403 269.186 153.24 269.404C153.077 269.622 152.864 269.793 152.601 269.917C152.337 270.037 152.016 270.098 151.639 270.098C151.382 270.098 151.146 270.06 150.931 269.985C150.719 269.91 150.537 269.795 150.384 269.639C150.231 269.482 150.112 269.279 150.027 269.028C149.946 268.778 149.905 268.477 149.905 268.125V264.717H150.809V268.135C150.809 268.372 150.835 268.569 150.887 268.726C150.942 268.879 151.015 269.001 151.106 269.092C151.201 269.18 151.305 269.242 151.419 269.277C151.536 269.313 151.657 269.331 151.78 269.331C152.164 269.331 152.469 269.258 152.693 269.111C152.918 268.962 153.079 268.761 153.177 268.511C153.278 268.257 153.328 267.975 153.328 267.666ZM156.746 265.845V270H155.842V264.717H156.697L156.746 265.845ZM156.531 267.158L156.155 267.144C156.158 266.782 156.212 266.449 156.316 266.143C156.42 265.833 156.567 265.565 156.755 265.337C156.944 265.109 157.169 264.933 157.429 264.81C157.693 264.683 157.984 264.619 158.303 264.619C158.564 264.619 158.798 264.655 159.006 264.727C159.215 264.795 159.392 264.906 159.539 265.059C159.688 265.212 159.802 265.41 159.88 265.654C159.959 265.895 159.998 266.19 159.998 266.538V270H159.089V266.528C159.089 266.252 159.049 266.03 158.967 265.864C158.886 265.695 158.767 265.573 158.611 265.498C158.455 265.42 158.263 265.381 158.035 265.381C157.81 265.381 157.605 265.428 157.42 265.522C157.237 265.617 157.079 265.747 156.946 265.913C156.816 266.079 156.713 266.27 156.638 266.484C156.567 266.696 156.531 266.921 156.531 267.158Z" fill="#4B5050" fill-opacity="0.7"/>
<path d="M170.375 267.925V262.891H171.313V267.925C171.313 268.394 171.217 268.789 171.025 269.111C170.833 269.434 170.567 269.679 170.229 269.849C169.893 270.015 169.508 270.098 169.071 270.098C168.635 270.098 168.248 270.023 167.909 269.873C167.571 269.723 167.305 269.495 167.113 269.189C166.921 268.883 166.825 268.498 166.825 268.032H167.768C167.768 268.332 167.823 268.577 167.934 268.77C168.044 268.962 168.197 269.103 168.393 269.194C168.591 269.285 168.818 269.331 169.071 269.331C169.319 269.331 169.54 269.279 169.735 269.175C169.934 269.067 170.09 268.91 170.204 268.701C170.318 268.49 170.375 268.231 170.375 267.925ZM176.405 268.779V264.717H177.313V270H176.449L176.405 268.779ZM176.576 267.666L176.952 267.656C176.952 268.008 176.914 268.333 176.84 268.633C176.768 268.929 176.651 269.186 176.488 269.404C176.325 269.622 176.112 269.793 175.848 269.917C175.585 270.037 175.264 270.098 174.886 270.098C174.629 270.098 174.393 270.06 174.178 269.985C173.967 269.91 173.785 269.795 173.632 269.639C173.479 269.482 173.36 269.279 173.275 269.028C173.194 268.778 173.153 268.477 173.153 268.125V264.717H174.056V268.135C174.056 268.372 174.082 268.569 174.135 268.726C174.19 268.879 174.263 269.001 174.354 269.092C174.449 269.18 174.553 269.242 174.667 269.277C174.784 269.313 174.904 269.331 175.028 269.331C175.412 269.331 175.717 269.258 175.941 269.111C176.166 268.962 176.327 268.761 176.425 268.511C176.525 268.257 176.576 267.975 176.576 267.666ZM180.072 262.5V270H179.163V262.5H180.072Z" fill="#4B5050" fill-opacity="0.7"/>
<path d="M190.158 263.521L187.805 270H186.843L189.553 262.891H190.173L190.158 263.521ZM192.131 270L189.772 263.521L189.758 262.891H190.378L193.098 270H192.131ZM192.009 267.368V268.14H188.015V267.368H192.009ZM197.487 268.779V264.717H198.395V270H197.531L197.487 268.779ZM197.658 267.666L198.034 267.656C198.034 268.008 197.996 268.333 197.921 268.633C197.85 268.929 197.733 269.186 197.57 269.404C197.407 269.622 197.194 269.793 196.93 269.917C196.667 270.037 196.346 270.098 195.968 270.098C195.711 270.098 195.475 270.06 195.26 269.985C195.049 269.91 194.866 269.795 194.713 269.639C194.56 269.482 194.442 269.279 194.357 269.028C194.276 268.778 194.235 268.477 194.235 268.125V264.717H195.138V268.135C195.138 268.372 195.164 268.569 195.216 268.726C195.272 268.879 195.345 269.001 195.436 269.092C195.53 269.18 195.635 269.242 195.749 269.277C195.866 269.313 195.986 269.331 196.11 269.331C196.494 269.331 196.798 269.258 197.023 269.111C197.248 268.962 197.409 268.761 197.506 268.511C197.607 268.257 197.658 267.975 197.658 267.666ZM203.595 264.717H204.415V269.888C204.415 270.353 204.321 270.75 204.132 271.079C203.943 271.408 203.679 271.657 203.341 271.826C203.006 271.999 202.618 272.085 202.179 272.085C201.997 272.085 201.782 272.056 201.534 271.997C201.29 271.942 201.049 271.846 200.812 271.709C200.577 271.576 200.38 271.395 200.221 271.167L200.694 270.63C200.916 270.897 201.147 271.082 201.388 271.187C201.632 271.291 201.873 271.343 202.11 271.343C202.397 271.343 202.644 271.289 202.853 271.182C203.061 271.074 203.222 270.915 203.336 270.703C203.453 270.495 203.512 270.238 203.512 269.932V265.879L203.595 264.717ZM199.957 267.417V267.314C199.957 266.911 200.004 266.545 200.099 266.216C200.196 265.884 200.335 265.599 200.514 265.361C200.696 265.124 200.916 264.941 201.173 264.814C201.43 264.684 201.72 264.619 202.042 264.619C202.374 264.619 202.664 264.678 202.911 264.795C203.162 264.909 203.373 265.076 203.546 265.298C203.722 265.516 203.86 265.78 203.961 266.089C204.062 266.398 204.132 266.748 204.171 267.139V267.588C204.135 267.975 204.065 268.324 203.961 268.633C203.86 268.942 203.722 269.206 203.546 269.424C203.373 269.642 203.162 269.81 202.911 269.927C202.661 270.041 202.368 270.098 202.032 270.098C201.717 270.098 201.43 270.031 201.173 269.897C200.919 269.764 200.701 269.577 200.519 269.336C200.336 269.095 200.196 268.812 200.099 268.486C200.004 268.158 199.957 267.801 199.957 267.417ZM200.86 267.314V267.417C200.86 267.681 200.886 267.928 200.939 268.159C200.994 268.39 201.077 268.594 201.188 268.77C201.302 268.945 201.446 269.084 201.622 269.185C201.798 269.282 202.008 269.331 202.252 269.331C202.552 269.331 202.799 269.268 202.994 269.141C203.19 269.014 203.344 268.846 203.458 268.638C203.575 268.429 203.666 268.203 203.732 267.959V266.782C203.696 266.603 203.64 266.431 203.566 266.265C203.494 266.095 203.4 265.946 203.282 265.815C203.168 265.682 203.027 265.576 202.858 265.498C202.688 265.42 202.49 265.381 202.262 265.381C202.014 265.381 201.801 265.433 201.622 265.537C201.446 265.638 201.302 265.778 201.188 265.957C201.077 266.133 200.994 266.338 200.939 266.572C200.886 266.803 200.86 267.051 200.86 267.314Z" fill="#4B5050" fill-opacity="0.7"/>
<path d="M215.387 268.203C215.387 268.037 215.361 267.891 215.308 267.764C215.26 267.633 215.172 267.516 215.045 267.412C214.921 267.308 214.749 267.209 214.527 267.114C214.309 267.02 214.032 266.924 213.697 266.826C213.346 266.722 213.028 266.606 212.745 266.479C212.462 266.349 212.219 266.201 212.017 266.035C211.816 265.869 211.661 265.679 211.554 265.464C211.446 265.249 211.392 265.003 211.392 264.727C211.392 264.45 211.449 264.194 211.563 263.96C211.677 263.726 211.84 263.522 212.052 263.35C212.267 263.174 212.522 263.037 212.818 262.939C213.114 262.842 213.445 262.793 213.809 262.793C214.343 262.793 214.796 262.896 215.167 263.101C215.541 263.302 215.826 263.568 216.021 263.896C216.217 264.222 216.314 264.57 216.314 264.941H215.377C215.377 264.674 215.32 264.438 215.206 264.233C215.092 264.025 214.919 263.862 214.688 263.745C214.457 263.625 214.164 263.564 213.809 263.564C213.474 263.564 213.197 263.615 212.979 263.716C212.761 263.817 212.599 263.953 212.491 264.126C212.387 264.299 212.335 264.495 212.335 264.717C212.335 264.867 212.366 265.003 212.428 265.127C212.493 265.247 212.592 265.36 212.725 265.464C212.862 265.568 213.035 265.664 213.243 265.752C213.455 265.84 213.707 265.924 214 266.006C214.404 266.12 214.752 266.247 215.045 266.387C215.338 266.527 215.579 266.685 215.767 266.86C215.96 267.033 216.101 267.23 216.192 267.451C216.287 267.669 216.334 267.917 216.334 268.193C216.334 268.483 216.275 268.745 216.158 268.979C216.041 269.214 215.873 269.414 215.655 269.58C215.437 269.746 215.175 269.875 214.869 269.966C214.566 270.054 214.228 270.098 213.853 270.098C213.525 270.098 213.201 270.052 212.882 269.961C212.566 269.87 212.278 269.733 212.017 269.551C211.76 269.368 211.554 269.144 211.397 268.877C211.244 268.607 211.168 268.294 211.168 267.939H212.105C212.105 268.184 212.153 268.394 212.247 268.569C212.341 268.742 212.47 268.885 212.633 268.999C212.799 269.113 212.986 269.198 213.194 269.253C213.406 269.305 213.626 269.331 213.853 269.331C214.182 269.331 214.461 269.285 214.688 269.194C214.916 269.103 215.089 268.973 215.206 268.804C215.326 268.634 215.387 268.434 215.387 268.203ZM219.991 270.098C219.623 270.098 219.289 270.036 218.99 269.912C218.694 269.785 218.438 269.608 218.223 269.38C218.012 269.152 217.849 268.882 217.735 268.569C217.621 268.257 217.564 267.915 217.564 267.544V267.339C217.564 266.909 217.627 266.527 217.754 266.191C217.881 265.853 218.054 265.566 218.272 265.332C218.49 265.098 218.737 264.92 219.014 264.8C219.291 264.679 219.577 264.619 219.874 264.619C220.251 264.619 220.577 264.684 220.85 264.814C221.127 264.945 221.353 265.127 221.529 265.361C221.705 265.592 221.835 265.866 221.919 266.182C222.004 266.494 222.046 266.836 222.046 267.207V267.612H218.101V266.875H221.143V266.807C221.13 266.572 221.081 266.344 220.997 266.123C220.915 265.902 220.785 265.719 220.606 265.576C220.427 265.433 220.183 265.361 219.874 265.361C219.668 265.361 219.48 265.405 219.307 265.493C219.135 265.578 218.986 265.705 218.863 265.874C218.739 266.043 218.643 266.25 218.575 266.494C218.506 266.738 218.472 267.02 218.472 267.339V267.544C218.472 267.795 218.506 268.031 218.575 268.252C218.646 268.47 218.749 268.662 218.882 268.828C219.019 268.994 219.183 269.124 219.375 269.219C219.571 269.313 219.792 269.36 220.04 269.36C220.359 269.36 220.629 269.295 220.85 269.165C221.071 269.035 221.265 268.861 221.431 268.643L221.978 269.077C221.864 269.25 221.719 269.414 221.543 269.57C221.368 269.727 221.151 269.854 220.894 269.951C220.64 270.049 220.339 270.098 219.991 270.098ZM224.404 265.732V272.031H223.496V264.717H224.326L224.404 265.732ZM227.964 267.314V267.417C227.964 267.801 227.918 268.158 227.827 268.486C227.736 268.812 227.603 269.095 227.427 269.336C227.254 269.577 227.041 269.764 226.787 269.897C226.533 270.031 226.242 270.098 225.913 270.098C225.578 270.098 225.282 270.042 225.025 269.932C224.767 269.821 224.549 269.66 224.37 269.448C224.191 269.237 224.048 268.983 223.941 268.687C223.836 268.39 223.765 268.057 223.726 267.686V267.139C223.765 266.748 223.838 266.398 223.945 266.089C224.053 265.78 224.194 265.516 224.37 265.298C224.549 265.076 224.766 264.909 225.02 264.795C225.274 264.678 225.567 264.619 225.899 264.619C226.231 264.619 226.525 264.684 226.782 264.814C227.039 264.941 227.256 265.124 227.432 265.361C227.608 265.599 227.739 265.884 227.827 266.216C227.918 266.545 227.964 266.911 227.964 267.314ZM227.056 267.417V267.314C227.056 267.051 227.028 266.803 226.973 266.572C226.917 266.338 226.831 266.133 226.714 265.957C226.6 265.778 226.454 265.638 226.275 265.537C226.095 265.433 225.882 265.381 225.635 265.381C225.407 265.381 225.208 265.42 225.039 265.498C224.873 265.576 224.732 265.682 224.614 265.815C224.497 265.946 224.401 266.095 224.326 266.265C224.255 266.431 224.201 266.603 224.165 266.782V268.047C224.23 268.275 224.321 268.49 224.439 268.691C224.556 268.89 224.712 269.051 224.907 269.175C225.103 269.295 225.348 269.355 225.645 269.355C225.889 269.355 226.099 269.305 226.275 269.204C226.454 269.1 226.6 268.958 226.714 268.779C226.831 268.6 226.917 268.395 226.973 268.164C227.028 267.93 227.056 267.681 227.056 267.417Z" fill="#4B5050" fill-opacity="0.7"/>
<path d="M240.504 266.221V266.67C240.504 267.204 240.437 267.682 240.303 268.105C240.17 268.529 239.978 268.888 239.727 269.185C239.477 269.481 239.175 269.707 238.824 269.863C238.476 270.02 238.085 270.098 237.652 270.098C237.232 270.098 236.846 270.02 236.495 269.863C236.146 269.707 235.844 269.481 235.587 269.185C235.333 268.888 235.136 268.529 234.996 268.105C234.856 267.682 234.786 267.204 234.786 266.67V266.221C234.786 265.687 234.854 265.21 234.991 264.79C235.131 264.367 235.328 264.007 235.582 263.711C235.836 263.411 236.137 263.184 236.485 263.027C236.837 262.871 237.222 262.793 237.642 262.793C238.075 262.793 238.466 262.871 238.814 263.027C239.166 263.184 239.467 263.411 239.717 263.711C239.971 264.007 240.165 264.367 240.298 264.79C240.435 265.21 240.504 265.687 240.504 266.221ZM239.571 266.67V266.211C239.571 265.788 239.527 265.413 239.439 265.088C239.354 264.762 239.229 264.489 239.063 264.268C238.897 264.046 238.694 263.879 238.453 263.765C238.215 263.651 237.945 263.594 237.642 263.594C237.349 263.594 237.084 263.651 236.846 263.765C236.612 263.879 236.41 264.046 236.241 264.268C236.075 264.489 235.946 264.762 235.855 265.088C235.764 265.413 235.718 265.788 235.718 266.211V266.67C235.718 267.096 235.764 267.474 235.855 267.803C235.946 268.128 236.076 268.403 236.246 268.628C236.418 268.849 236.622 269.017 236.856 269.131C237.094 269.245 237.359 269.302 237.652 269.302C237.958 269.302 238.23 269.245 238.467 269.131C238.705 269.017 238.905 268.849 239.068 268.628C239.234 268.403 239.359 268.128 239.444 267.803C239.529 267.474 239.571 267.096 239.571 266.67ZM244.292 269.355C244.507 269.355 244.706 269.312 244.888 269.224C245.07 269.136 245.22 269.015 245.337 268.862C245.454 268.706 245.521 268.529 245.537 268.33H246.397C246.38 268.643 246.275 268.934 246.079 269.204C245.887 269.471 245.635 269.688 245.323 269.854C245.01 270.016 244.667 270.098 244.292 270.098C243.895 270.098 243.548 270.028 243.252 269.888C242.959 269.748 242.715 269.556 242.52 269.312C242.328 269.067 242.183 268.787 242.085 268.472C241.991 268.153 241.944 267.816 241.944 267.461V267.256C241.944 266.901 241.991 266.566 242.085 266.25C242.183 265.931 242.328 265.649 242.52 265.405C242.715 265.161 242.959 264.969 243.252 264.829C243.548 264.689 243.895 264.619 244.292 264.619C244.706 264.619 245.067 264.704 245.376 264.873C245.685 265.039 245.928 265.267 246.104 265.557C246.283 265.843 246.38 266.169 246.397 266.533H245.537C245.521 266.315 245.459 266.118 245.352 265.942C245.248 265.767 245.104 265.627 244.922 265.522C244.743 265.415 244.533 265.361 244.292 265.361C244.016 265.361 243.783 265.417 243.594 265.527C243.408 265.635 243.26 265.781 243.15 265.967C243.042 266.149 242.964 266.353 242.915 266.577C242.87 266.799 242.847 267.025 242.847 267.256V267.461C242.847 267.692 242.87 267.92 242.915 268.145C242.961 268.369 243.037 268.573 243.145 268.755C243.255 268.937 243.404 269.084 243.589 269.194C243.778 269.302 244.012 269.355 244.292 269.355ZM250.024 264.717V265.41H247.168V264.717H250.024ZM248.135 263.433H249.038V268.691C249.038 268.87 249.066 269.006 249.121 269.097C249.176 269.188 249.248 269.248 249.336 269.277C249.424 269.307 249.518 269.321 249.619 269.321C249.694 269.321 249.772 269.315 249.853 269.302C249.938 269.285 250.001 269.272 250.044 269.263L250.049 270C249.977 270.023 249.883 270.044 249.765 270.063C249.652 270.086 249.513 270.098 249.35 270.098C249.129 270.098 248.926 270.054 248.74 269.966C248.555 269.878 248.406 269.731 248.296 269.526C248.188 269.318 248.135 269.038 248.135 268.687V263.433Z" fill="#4B5050" fill-opacity="0.7"/>
<path d="M262.59 262.891V270H261.643L258.064 264.517V270H257.121V262.891H258.064L261.658 268.389V262.891H262.59ZM264.284 267.417V267.305C264.284 266.924 264.34 266.571 264.45 266.245C264.561 265.916 264.72 265.632 264.929 265.391C265.137 265.146 265.389 264.958 265.686 264.824C265.982 264.688 266.314 264.619 266.682 264.619C267.053 264.619 267.386 264.688 267.683 264.824C267.982 264.958 268.236 265.146 268.444 265.391C268.656 265.632 268.817 265.916 268.928 266.245C269.038 266.571 269.094 266.924 269.094 267.305V267.417C269.094 267.798 269.038 268.151 268.928 268.477C268.817 268.802 268.656 269.087 268.444 269.331C268.236 269.572 267.984 269.761 267.688 269.897C267.395 270.031 267.063 270.098 266.691 270.098C266.32 270.098 265.987 270.031 265.69 269.897C265.394 269.761 265.14 269.572 264.929 269.331C264.72 269.087 264.561 268.802 264.45 268.477C264.34 268.151 264.284 267.798 264.284 267.417ZM265.188 267.305V267.417C265.188 267.681 265.218 267.93 265.28 268.164C265.342 268.395 265.435 268.6 265.559 268.779C265.686 268.958 265.843 269.1 266.032 269.204C266.221 269.305 266.441 269.355 266.691 269.355C266.939 269.355 267.155 269.305 267.341 269.204C267.53 269.1 267.686 268.958 267.81 268.779C267.933 268.6 268.026 268.395 268.088 268.164C268.153 267.93 268.186 267.681 268.186 267.417V267.305C268.186 267.044 268.153 266.799 268.088 266.567C268.026 266.333 267.932 266.126 267.805 265.947C267.681 265.765 267.525 265.622 267.336 265.518C267.15 265.413 266.932 265.361 266.682 265.361C266.434 265.361 266.216 265.413 266.027 265.518C265.842 265.622 265.686 265.765 265.559 265.947C265.435 266.126 265.342 266.333 265.28 266.567C265.218 266.799 265.188 267.044 265.188 267.305ZM272.155 269.185L273.6 264.717H274.523L272.624 270H272.018L272.155 269.185ZM270.949 264.717L272.438 269.209L272.541 270H271.935L270.021 264.717H270.949Z" fill="#4B5050" fill-opacity="0.7"/>
<path d="M282.999 270H281.515L281.525 269.233H282.999C283.507 269.233 283.93 269.128 284.269 268.916C284.607 268.701 284.861 268.402 285.03 268.018C285.203 267.63 285.289 267.178 285.289 266.66V266.226C285.289 265.819 285.24 265.457 285.143 265.142C285.045 264.823 284.902 264.554 284.713 264.336C284.524 264.115 284.293 263.947 284.02 263.833C283.749 263.719 283.439 263.662 283.087 263.662H281.485V262.891H283.087C283.553 262.891 283.977 262.969 284.361 263.125C284.746 263.278 285.076 263.501 285.353 263.794C285.633 264.084 285.847 264.435 285.997 264.849C286.147 265.259 286.222 265.721 286.222 266.235V266.66C286.222 267.174 286.147 267.638 285.997 268.052C285.847 268.462 285.631 268.812 285.348 269.102C285.068 269.391 284.729 269.614 284.332 269.771C283.938 269.924 283.494 270 282.999 270ZM282.018 262.891V270H281.075V262.891H282.018ZM290.094 270.098C289.726 270.098 289.392 270.036 289.093 269.912C288.796 269.785 288.541 269.608 288.326 269.38C288.114 269.152 287.952 268.882 287.838 268.569C287.724 268.257 287.667 267.915 287.667 267.544V267.339C287.667 266.909 287.73 266.527 287.857 266.191C287.984 265.853 288.157 265.566 288.375 265.332C288.593 265.098 288.84 264.92 289.117 264.8C289.394 264.679 289.68 264.619 289.976 264.619C290.354 264.619 290.679 264.684 290.953 264.814C291.23 264.945 291.456 265.127 291.632 265.361C291.807 265.592 291.938 265.866 292.022 266.182C292.107 266.494 292.149 266.836 292.149 267.207V267.612H288.204V266.875H291.246V266.807C291.233 266.572 291.184 266.344 291.099 266.123C291.018 265.902 290.888 265.719 290.709 265.576C290.53 265.433 290.286 265.361 289.976 265.361C289.771 265.361 289.582 265.405 289.41 265.493C289.237 265.578 289.089 265.705 288.966 265.874C288.842 266.043 288.746 266.25 288.677 266.494C288.609 266.738 288.575 267.02 288.575 267.339V267.544C288.575 267.795 288.609 268.031 288.677 268.252C288.749 268.47 288.852 268.662 288.985 268.828C289.122 268.994 289.286 269.124 289.478 269.219C289.674 269.313 289.895 269.36 290.142 269.36C290.461 269.36 290.732 269.295 290.953 269.165C291.174 269.035 291.368 268.861 291.534 268.643L292.081 269.077C291.967 269.25 291.822 269.414 291.646 269.57C291.47 269.727 291.254 269.854 290.997 269.951C290.743 270.049 290.442 270.098 290.094 270.098ZM295.718 269.355C295.933 269.355 296.132 269.312 296.314 269.224C296.496 269.136 296.646 269.015 296.763 268.862C296.88 268.706 296.947 268.529 296.963 268.33H297.823C297.806 268.643 297.701 268.934 297.505 269.204C297.313 269.471 297.061 269.688 296.748 269.854C296.436 270.016 296.092 270.098 295.718 270.098C295.321 270.098 294.974 270.028 294.678 269.888C294.385 269.748 294.141 269.556 293.946 269.312C293.754 269.067 293.609 268.787 293.511 268.472C293.417 268.153 293.369 267.816 293.369 267.461V267.256C293.369 266.901 293.417 266.566 293.511 266.25C293.609 265.931 293.754 265.649 293.946 265.405C294.141 265.161 294.385 264.969 294.678 264.829C294.974 264.689 295.321 264.619 295.718 264.619C296.132 264.619 296.493 264.704 296.802 264.873C297.111 265.039 297.354 265.267 297.53 265.557C297.709 265.843 297.806 266.169 297.823 266.533H296.963C296.947 266.315 296.885 266.118 296.778 265.942C296.674 265.767 296.53 265.627 296.348 265.522C296.169 265.415 295.959 265.361 295.718 265.361C295.441 265.361 295.209 265.417 295.02 265.527C294.834 265.635 294.686 265.781 294.576 265.967C294.468 266.149 294.39 266.353 294.341 266.577C294.296 266.799 294.273 267.025 294.273 267.256V267.461C294.273 267.692 294.296 267.92 294.341 268.145C294.387 268.369 294.463 268.573 294.571 268.755C294.681 268.937 294.829 269.084 295.015 269.194C295.204 269.302 295.438 269.355 295.718 269.355Z" fill="#4B5050" fill-opacity="0.7"/>
<path d="M7.45352 111.738V113.228H6.72109V111.738H7.45352ZM7.36563 119.712V121.016H6.63809V119.712H7.36563ZM8.34219 118.169C8.34219 117.974 8.29824 117.798 8.21035 117.642C8.12246 117.485 7.9776 117.342 7.77578 117.212C7.57396 117.082 7.30378 116.961 6.96523 116.851C6.55508 116.724 6.20026 116.569 5.90078 116.387C5.60456 116.204 5.37507 115.978 5.21231 115.708C5.0528 115.438 4.97305 115.111 4.97305 114.727C4.97305 114.326 5.05931 113.981 5.23184 113.691C5.40436 113.402 5.6485 113.179 5.96426 113.022C6.28001 112.866 6.65111 112.788 7.07754 112.788C7.40957 112.788 7.70579 112.839 7.96621 112.939C8.22663 113.037 8.44635 113.184 8.62539 113.379C8.80768 113.574 8.94603 113.813 9.04043 114.097C9.13809 114.38 9.18691 114.707 9.18691 115.078H8.28848C8.28848 114.86 8.26244 114.66 8.21035 114.478C8.15827 114.295 8.08014 114.137 7.97598 114.004C7.87181 113.867 7.74486 113.763 7.59512 113.691C7.44538 113.617 7.27285 113.579 7.07754 113.579C6.8041 113.579 6.57786 113.626 6.39883 113.721C6.22305 113.815 6.09284 113.949 6.0082 114.121C5.92357 114.29 5.88125 114.487 5.88125 114.712C5.88125 114.92 5.92357 115.103 6.0082 115.259C6.09284 115.415 6.23607 115.557 6.43789 115.684C6.64297 115.807 6.92454 115.929 7.28262 116.05C7.70254 116.183 8.05898 116.341 8.35195 116.523C8.64492 116.702 8.8679 116.924 9.0209 117.188C9.17389 117.448 9.25039 117.772 9.25039 118.159C9.25039 118.579 9.15599 118.934 8.96719 119.224C8.77839 119.51 8.51309 119.728 8.17129 119.878C7.82949 120.028 7.4291 120.103 6.97012 120.103C6.69342 120.103 6.41999 120.065 6.14981 119.99C5.87962 119.915 5.63548 119.793 5.41738 119.624C5.19928 119.451 5.02513 119.225 4.89492 118.945C4.76471 118.662 4.69961 118.315 4.69961 117.905H5.60781C5.60781 118.182 5.64688 118.411 5.725 118.594C5.80638 118.773 5.9138 118.916 6.04727 119.023C6.18073 119.128 6.32721 119.202 6.48672 119.248C6.64948 119.29 6.81061 119.312 6.97012 119.312C7.26309 119.312 7.51048 119.266 7.71231 119.175C7.91738 119.08 8.07363 118.947 8.18106 118.774C8.28848 118.602 8.34219 118.4 8.34219 118.169ZM15.2607 118.076C15.2607 118.509 15.1598 118.877 14.958 119.18C14.7594 119.479 14.4893 119.707 14.1475 119.863C13.8089 120.02 13.4264 120.098 13 120.098C12.5736 120.098 12.1895 120.02 11.8477 119.863C11.5059 119.707 11.2357 119.479 11.0371 119.18C10.8385 118.877 10.7393 118.509 10.7393 118.076C10.7393 117.793 10.793 117.534 10.9004 117.3C11.0111 117.062 11.1657 116.855 11.3643 116.68C11.5661 116.504 11.8037 116.369 12.0771 116.274C12.3538 116.177 12.6582 116.128 12.9902 116.128C13.4264 116.128 13.8154 116.213 14.1572 116.382C14.499 116.548 14.7676 116.777 14.9629 117.07C15.1615 117.363 15.2607 117.699 15.2607 118.076ZM14.3525 118.057C14.3525 117.793 14.2956 117.56 14.1816 117.358C14.0677 117.153 13.9082 116.994 13.7031 116.88C13.498 116.766 13.2604 116.709 12.9902 116.709C12.7135 116.709 12.4743 116.766 12.2725 116.88C12.0739 116.994 11.9193 117.153 11.8086 117.358C11.6979 117.56 11.6426 117.793 11.6426 118.057C11.6426 118.33 11.6963 118.564 11.8037 118.76C11.9144 118.952 12.0706 119.1 12.2725 119.204C12.4775 119.305 12.7201 119.355 13 119.355C13.2799 119.355 13.5208 119.305 13.7227 119.204C13.9245 119.1 14.0791 118.952 14.1865 118.76C14.2972 118.564 14.3525 118.33 14.3525 118.057ZM15.0947 114.741C15.0947 115.086 15.0036 115.397 14.8213 115.674C14.639 115.951 14.39 116.169 14.0742 116.328C13.7585 116.488 13.4004 116.567 13 116.567C12.5931 116.567 12.2301 116.488 11.9111 116.328C11.5954 116.169 11.348 115.951 11.1689 115.674C10.9899 115.397 10.9004 115.086 10.9004 114.741C10.9004 114.328 10.9899 113.976 11.1689 113.687C11.3512 113.397 11.6003 113.175 11.916 113.022C12.2318 112.869 12.5915 112.793 12.9951 112.793C13.402 112.793 13.7633 112.869 14.0791 113.022C14.3949 113.175 14.6423 113.397 14.8213 113.687C15.0036 113.976 15.0947 114.328 15.0947 114.741ZM14.1914 114.756C14.1914 114.518 14.141 114.308 14.04 114.126C13.9391 113.944 13.7992 113.8 13.6201 113.696C13.4411 113.589 13.2327 113.535 12.9951 113.535C12.7575 113.535 12.5492 113.586 12.3701 113.687C12.1943 113.784 12.056 113.924 11.9551 114.106C11.8574 114.289 11.8086 114.505 11.8086 114.756C11.8086 115 11.8574 115.213 11.9551 115.396C12.056 115.578 12.196 115.719 12.375 115.82C12.554 115.921 12.7624 115.972 13 115.972C13.2376 115.972 13.4443 115.921 13.6201 115.82C13.7992 115.719 13.9391 115.578 14.04 115.396C14.141 115.213 14.1914 115 14.1914 114.756ZM21.2662 115.879V116.963C21.2662 117.546 21.2141 118.037 21.11 118.438C21.0058 118.838 20.8561 119.16 20.6607 119.404C20.4654 119.648 20.2294 119.826 19.9527 119.937C19.6793 120.044 19.3701 120.098 19.025 120.098C18.7516 120.098 18.4993 120.063 18.2682 119.995C18.037 119.927 17.8287 119.818 17.6432 119.668C17.4609 119.515 17.3046 119.316 17.1744 119.072C17.0442 118.828 16.9449 118.532 16.8766 118.184C16.8082 117.835 16.774 117.428 16.774 116.963V115.879C16.774 115.296 16.8261 114.808 16.9303 114.414C17.0377 114.02 17.1891 113.704 17.3844 113.467C17.5797 113.226 17.8141 113.053 18.0875 112.949C18.3642 112.845 18.6734 112.793 19.0152 112.793C19.2919 112.793 19.5458 112.827 19.777 112.896C20.0113 112.961 20.2197 113.066 20.402 113.213C20.5842 113.356 20.7389 113.548 20.8658 113.789C20.996 114.027 21.0953 114.318 21.1637 114.663C21.232 115.008 21.2662 115.413 21.2662 115.879ZM20.358 117.109V115.728C20.358 115.409 20.3385 115.129 20.2994 114.888C20.2636 114.644 20.2099 114.435 20.1383 114.263C20.0667 114.09 19.9755 113.95 19.8648 113.843C19.7574 113.735 19.6321 113.657 19.4889 113.608C19.3489 113.556 19.191 113.53 19.0152 113.53C18.8004 113.53 18.61 113.571 18.4439 113.652C18.2779 113.73 18.138 113.856 18.024 114.028C17.9133 114.201 17.8287 114.427 17.7701 114.707C17.7115 114.987 17.6822 115.327 17.6822 115.728V117.109C17.6822 117.428 17.7001 117.71 17.7359 117.954C17.775 118.198 17.832 118.41 17.9068 118.589C17.9817 118.765 18.0729 118.91 18.1803 119.023C18.2877 119.137 18.4114 119.222 18.5514 119.277C18.6946 119.329 18.8525 119.355 19.025 119.355C19.2464 119.355 19.44 119.313 19.6061 119.229C19.7721 119.144 19.9104 119.012 20.0211 118.833C20.135 118.651 20.2197 118.418 20.275 118.135C20.3303 117.848 20.358 117.507 20.358 117.109Z" fill="#4B5050" fill-opacity="0.7"/>
<line x1="30.5" y1="116.5" x2="295.5" y2="116.5" stroke="#E5E5E5" stroke-linecap="square" stroke-dasharray="3"/>
<path d="M7.45352 145.738V147.228H6.72109V145.738H7.45352ZM7.36563 153.712V155.016H6.63809V153.712H7.36563ZM8.34219 152.169C8.34219 151.974 8.29824 151.798 8.21035 151.642C8.12246 151.485 7.9776 151.342 7.77578 151.212C7.57396 151.082 7.30378 150.961 6.96523 150.851C6.55508 150.724 6.20026 150.569 5.90078 150.387C5.60456 150.204 5.37507 149.978 5.21231 149.708C5.0528 149.438 4.97305 149.111 4.97305 148.727C4.97305 148.326 5.05931 147.981 5.23184 147.691C5.40436 147.402 5.6485 147.179 5.96426 147.022C6.28001 146.866 6.65111 146.788 7.07754 146.788C7.40957 146.788 7.70579 146.839 7.96621 146.939C8.22663 147.037 8.44635 147.184 8.62539 147.379C8.80768 147.574 8.94603 147.813 9.04043 148.097C9.13809 148.38 9.18691 148.707 9.18691 149.078H8.28848C8.28848 148.86 8.26244 148.66 8.21035 148.478C8.15827 148.295 8.08014 148.137 7.97598 148.004C7.87181 147.867 7.74486 147.763 7.59512 147.691C7.44538 147.617 7.27285 147.579 7.07754 147.579C6.8041 147.579 6.57786 147.626 6.39883 147.721C6.22305 147.815 6.09284 147.949 6.0082 148.121C5.92357 148.29 5.88125 148.487 5.88125 148.712C5.88125 148.92 5.92357 149.103 6.0082 149.259C6.09284 149.415 6.23607 149.557 6.43789 149.684C6.64297 149.807 6.92454 149.929 7.28262 150.05C7.70254 150.183 8.05898 150.341 8.35195 150.523C8.64492 150.702 8.8679 150.924 9.0209 151.188C9.17389 151.448 9.25039 151.772 9.25039 152.159C9.25039 152.579 9.15599 152.934 8.96719 153.224C8.77839 153.51 8.51309 153.728 8.17129 153.878C7.82949 154.028 7.4291 154.103 6.97012 154.103C6.69342 154.103 6.41999 154.065 6.14981 153.99C5.87962 153.915 5.63548 153.793 5.41738 153.624C5.19928 153.451 5.02513 153.225 4.89492 152.945C4.76471 152.662 4.69961 152.315 4.69961 151.905H5.60781C5.60781 152.182 5.64688 152.411 5.725 152.594C5.80638 152.773 5.9138 152.916 6.04727 153.023C6.18073 153.128 6.32721 153.202 6.48672 153.248C6.64948 153.29 6.81061 153.312 6.97012 153.312C7.26309 153.312 7.51048 153.266 7.71231 153.175C7.91738 153.08 8.07363 152.947 8.18106 152.774C8.28848 152.602 8.34219 152.4 8.34219 152.169ZM14.2451 146.881H14.3232V147.647H14.2451C13.7666 147.647 13.3662 147.726 13.0439 147.882C12.7217 148.035 12.4661 148.242 12.2773 148.502C12.0885 148.759 11.9518 149.049 11.8672 149.371C11.7858 149.693 11.7451 150.021 11.7451 150.353V151.397C11.7451 151.713 11.7826 151.993 11.8574 152.237C11.9323 152.478 12.0348 152.682 12.165 152.848C12.2952 153.014 12.4417 153.139 12.6045 153.224C12.7705 153.308 12.943 153.351 13.1221 153.351C13.3304 153.351 13.516 153.312 13.6787 153.233C13.8415 153.152 13.9782 153.04 14.0889 152.896C14.2028 152.75 14.2891 152.577 14.3477 152.379C14.4063 152.18 14.4355 151.962 14.4355 151.725C14.4355 151.513 14.4095 151.31 14.3574 151.114C14.3053 150.916 14.2256 150.74 14.1182 150.587C14.0107 150.431 13.8757 150.309 13.7129 150.221C13.5534 150.13 13.363 150.084 13.1416 150.084C12.891 150.084 12.6566 150.146 12.4385 150.27C12.2236 150.39 12.0462 150.549 11.9063 150.748C11.7695 150.943 11.6914 151.157 11.6719 151.388L11.1934 151.383C11.2389 151.018 11.3236 150.707 11.4473 150.45C11.5742 150.19 11.7305 149.978 11.916 149.815C12.1048 149.649 12.3148 149.529 12.5459 149.454C12.7803 149.376 13.0277 149.337 13.2881 149.337C13.6429 149.337 13.9489 149.404 14.2061 149.537C14.4632 149.671 14.6748 149.85 14.8408 150.074C15.0068 150.296 15.1289 150.546 15.207 150.826C15.2884 151.103 15.3291 151.388 15.3291 151.681C15.3291 152.016 15.2819 152.33 15.1875 152.623C15.0931 152.916 14.9515 153.173 14.7627 153.395C14.5771 153.616 14.3477 153.788 14.0742 153.912C13.8008 154.036 13.4834 154.098 13.1221 154.098C12.738 154.098 12.4027 154.02 12.1162 153.863C11.8298 153.704 11.5921 153.492 11.4033 153.229C11.2145 152.965 11.0729 152.672 10.9785 152.35C10.8841 152.027 10.8369 151.7 10.8369 151.368V150.943C10.8369 150.442 10.8874 149.951 10.9883 149.469C11.0892 148.987 11.2633 148.551 11.5107 148.16C11.7614 147.77 12.1081 147.459 12.5508 147.228C12.9935 146.996 13.5583 146.881 14.2451 146.881ZM21.2662 149.879V150.963C21.2662 151.546 21.2141 152.037 21.11 152.438C21.0058 152.838 20.8561 153.16 20.6607 153.404C20.4654 153.648 20.2294 153.826 19.9527 153.937C19.6793 154.044 19.3701 154.098 19.025 154.098C18.7516 154.098 18.4993 154.063 18.2682 153.995C18.037 153.927 17.8287 153.818 17.6432 153.668C17.4609 153.515 17.3046 153.316 17.1744 153.072C17.0442 152.828 16.9449 152.532 16.8766 152.184C16.8082 151.835 16.774 151.428 16.774 150.963V149.879C16.774 149.296 16.8261 148.808 16.9303 148.414C17.0377 148.02 17.1891 147.704 17.3844 147.467C17.5797 147.226 17.8141 147.053 18.0875 146.949C18.3642 146.845 18.6734 146.793 19.0152 146.793C19.2919 146.793 19.5458 146.827 19.777 146.896C20.0113 146.961 20.2197 147.066 20.402 147.213C20.5842 147.356 20.7389 147.548 20.8658 147.789C20.996 148.027 21.0953 148.318 21.1637 148.663C21.232 149.008 21.2662 149.413 21.2662 149.879ZM20.358 151.109V149.728C20.358 149.409 20.3385 149.129 20.2994 148.888C20.2636 148.644 20.2099 148.435 20.1383 148.263C20.0667 148.09 19.9755 147.95 19.8648 147.843C19.7574 147.735 19.6321 147.657 19.4889 147.608C19.3489 147.556 19.191 147.53 19.0152 147.53C18.8004 147.53 18.61 147.571 18.4439 147.652C18.2779 147.73 18.138 147.856 18.024 148.028C17.9133 148.201 17.8287 148.427 17.7701 148.707C17.7115 148.987 17.6822 149.327 17.6822 149.728V151.109C17.6822 151.428 17.7001 151.71 17.7359 151.954C17.775 152.198 17.832 152.41 17.9068 152.589C17.9817 152.765 18.0729 152.91 18.1803 153.023C18.2877 153.137 18.4114 153.222 18.5514 153.277C18.6946 153.329 18.8525 153.355 19.025 153.355C19.2464 153.355 19.44 153.313 19.6061 153.229C19.7721 153.144 19.9104 153.012 20.0211 152.833C20.135 152.651 20.2197 152.418 20.275 152.135C20.3303 151.848 20.358 151.507 20.358 151.109Z" fill="#4B5050" fill-opacity="0.7"/>
<line x1="30.5" y1="150.5" x2="295.5" y2="150.5" stroke="#E5E5E5" stroke-linecap="square" stroke-dasharray="3"/>
<path d="M7.45352 179.738V181.228H6.72109V179.738H7.45352ZM7.36563 187.712V189.016H6.63809V187.712H7.36563ZM8.34219 186.169C8.34219 185.974 8.29824 185.798 8.21035 185.642C8.12246 185.485 7.9776 185.342 7.77578 185.212C7.57396 185.082 7.30378 184.961 6.96523 184.851C6.55508 184.724 6.20026 184.569 5.90078 184.387C5.60456 184.204 5.37507 183.978 5.21231 183.708C5.0528 183.438 4.97305 183.111 4.97305 182.727C4.97305 182.326 5.05931 181.981 5.23184 181.691C5.40436 181.402 5.6485 181.179 5.96426 181.022C6.28001 180.866 6.65111 180.788 7.07754 180.788C7.40957 180.788 7.70579 180.839 7.96621 180.939C8.22663 181.037 8.44635 181.184 8.62539 181.379C8.80768 181.574 8.94603 181.813 9.04043 182.097C9.13809 182.38 9.18691 182.707 9.18691 183.078H8.28848C8.28848 182.86 8.26244 182.66 8.21035 182.478C8.15827 182.295 8.08014 182.137 7.97598 182.004C7.87181 181.867 7.74486 181.763 7.59512 181.691C7.44538 181.617 7.27285 181.579 7.07754 181.579C6.8041 181.579 6.57786 181.626 6.39883 181.721C6.22305 181.815 6.09284 181.949 6.0082 182.121C5.92357 182.29 5.88125 182.487 5.88125 182.712C5.88125 182.92 5.92357 183.103 6.0082 183.259C6.09284 183.415 6.23607 183.557 6.43789 183.684C6.64297 183.807 6.92454 183.929 7.28262 184.05C7.70254 184.183 8.05898 184.341 8.35195 184.523C8.64492 184.702 8.8679 184.924 9.0209 185.188C9.17389 185.448 9.25039 185.772 9.25039 186.159C9.25039 186.579 9.15599 186.934 8.96719 187.224C8.77839 187.51 8.51309 187.728 8.17129 187.878C7.82949 188.028 7.4291 188.103 6.97012 188.103C6.69342 188.103 6.41999 188.065 6.14981 187.99C5.87962 187.915 5.63548 187.793 5.41738 187.624C5.19928 187.451 5.02513 187.225 4.89492 186.945C4.76471 186.662 4.69961 186.315 4.69961 185.905H5.60781C5.60781 186.182 5.64688 186.411 5.725 186.594C5.80638 186.773 5.9138 186.916 6.04727 187.023C6.18073 187.128 6.32721 187.202 6.48672 187.248C6.64948 187.29 6.81061 187.312 6.97012 187.312C7.26309 187.312 7.51048 187.266 7.71231 187.175C7.91738 187.08 8.07363 186.947 8.18106 186.774C8.28848 186.602 8.34219 186.4 8.34219 186.169ZM15.583 185.607V186.35H10.4463V185.817L13.6299 180.891H14.3672L13.5762 182.316L11.4717 185.607H15.583ZM14.5918 180.891V188H13.6885V180.891H14.5918ZM21.2662 183.879V184.963C21.2662 185.546 21.2141 186.037 21.11 186.438C21.0058 186.838 20.8561 187.16 20.6607 187.404C20.4654 187.648 20.2294 187.826 19.9527 187.937C19.6793 188.044 19.3701 188.098 19.025 188.098C18.7516 188.098 18.4993 188.063 18.2682 187.995C18.037 187.927 17.8287 187.818 17.6432 187.668C17.4609 187.515 17.3046 187.316 17.1744 187.072C17.0442 186.828 16.9449 186.532 16.8766 186.184C16.8082 185.835 16.774 185.428 16.774 184.963V183.879C16.774 183.296 16.8261 182.808 16.9303 182.414C17.0377 182.02 17.1891 181.704 17.3844 181.467C17.5797 181.226 17.8141 181.053 18.0875 180.949C18.3642 180.845 18.6734 180.793 19.0152 180.793C19.2919 180.793 19.5458 180.827 19.777 180.896C20.0113 180.961 20.2197 181.066 20.402 181.213C20.5842 181.356 20.7389 181.548 20.8658 181.789C20.996 182.027 21.0953 182.318 21.1637 182.663C21.232 183.008 21.2662 183.413 21.2662 183.879ZM20.358 185.109V183.728C20.358 183.409 20.3385 183.129 20.2994 182.888C20.2636 182.644 20.2099 182.435 20.1383 182.263C20.0667 182.09 19.9755 181.95 19.8648 181.843C19.7574 181.735 19.6321 181.657 19.4889 181.608C19.3489 181.556 19.191 181.53 19.0152 181.53C18.8004 181.53 18.61 181.571 18.4439 181.652C18.2779 181.73 18.138 181.856 18.024 182.028C17.9133 182.201 17.8287 182.427 17.7701 182.707C17.7115 182.987 17.6822 183.327 17.6822 183.728V185.109C17.6822 185.428 17.7001 185.71 17.7359 185.954C17.775 186.198 17.832 186.41 17.9068 186.589C17.9817 186.765 18.0729 186.91 18.1803 187.023C18.2877 187.137 18.4114 187.222 18.5514 187.277C18.6946 187.329 18.8525 187.355 19.025 187.355C19.2464 187.355 19.44 187.313 19.6061 187.229C19.7721 187.144 19.9104 187.012 20.0211 186.833C20.135 186.651 20.2197 186.418 20.275 186.135C20.3303 185.848 20.358 185.507 20.358 185.109Z" fill="#4B5050" fill-opacity="0.7"/>
<line x1="30.5" y1="184.5" x2="295.5" y2="184.5" stroke="#E5E5E5" stroke-linecap="square" stroke-dasharray="3"/>
<path d="M7.45352 213.738V215.228H6.72109V213.738H7.45352ZM7.36563 221.712V223.016H6.63809V221.712H7.36563ZM8.34219 220.169C8.34219 219.974 8.29824 219.798 8.21035 219.642C8.12246 219.485 7.9776 219.342 7.77578 219.212C7.57396 219.082 7.30378 218.961 6.96523 218.851C6.55508 218.724 6.20026 218.569 5.90078 218.387C5.60456 218.204 5.37507 217.978 5.21231 217.708C5.0528 217.438 4.97305 217.111 4.97305 216.727C4.97305 216.326 5.05931 215.981 5.23184 215.691C5.40436 215.402 5.6485 215.179 5.96426 215.022C6.28001 214.866 6.65111 214.788 7.07754 214.788C7.40957 214.788 7.70579 214.839 7.96621 214.939C8.22663 215.037 8.44635 215.184 8.62539 215.379C8.80768 215.574 8.94603 215.813 9.04043 216.097C9.13809 216.38 9.18691 216.707 9.18691 217.078H8.28848C8.28848 216.86 8.26244 216.66 8.21035 216.478C8.15827 216.295 8.08014 216.137 7.97598 216.004C7.87181 215.867 7.74486 215.763 7.59512 215.691C7.44538 215.617 7.27285 215.579 7.07754 215.579C6.8041 215.579 6.57786 215.626 6.39883 215.721C6.22305 215.815 6.09284 215.949 6.0082 216.121C5.92357 216.29 5.88125 216.487 5.88125 216.712C5.88125 216.92 5.92357 217.103 6.0082 217.259C6.09284 217.415 6.23607 217.557 6.43789 217.684C6.64297 217.807 6.92454 217.929 7.28262 218.05C7.70254 218.183 8.05898 218.341 8.35195 218.523C8.64492 218.702 8.8679 218.924 9.0209 219.188C9.17389 219.448 9.25039 219.772 9.25039 220.159C9.25039 220.579 9.15599 220.934 8.96719 221.224C8.77839 221.51 8.51309 221.728 8.17129 221.878C7.82949 222.028 7.4291 222.103 6.97012 222.103C6.69342 222.103 6.41999 222.065 6.14981 221.99C5.87962 221.915 5.63548 221.793 5.41738 221.624C5.19928 221.451 5.02513 221.225 4.89492 220.945C4.76471 220.662 4.69961 220.315 4.69961 219.905H5.60781C5.60781 220.182 5.64688 220.411 5.725 220.594C5.80638 220.773 5.9138 220.916 6.04727 221.023C6.18073 221.128 6.32721 221.202 6.48672 221.248C6.64948 221.29 6.81061 221.312 6.97012 221.312C7.26309 221.312 7.51048 221.266 7.71231 221.175C7.91738 221.08 8.07363 220.947 8.18106 220.774C8.28848 220.602 8.34219 220.4 8.34219 220.169ZM15.4365 221.258V222H10.7832V221.351L13.1123 218.758C13.3988 218.439 13.6201 218.169 13.7764 217.947C13.9359 217.723 14.0465 217.522 14.1084 217.347C14.1735 217.168 14.2061 216.985 14.2061 216.8C14.2061 216.565 14.1572 216.354 14.0596 216.165C13.9652 215.973 13.8252 215.82 13.6396 215.706C13.4541 215.592 13.2295 215.535 12.9658 215.535C12.6501 215.535 12.3864 215.597 12.1748 215.721C11.9665 215.841 11.8102 216.01 11.7061 216.229C11.6019 216.447 11.5498 216.697 11.5498 216.98H10.6465C10.6465 216.58 10.7344 216.214 10.9102 215.882C11.0859 215.55 11.3464 215.286 11.6914 215.091C12.0365 214.892 12.4613 214.793 12.9658 214.793C13.415 214.793 13.7992 214.873 14.1182 215.032C14.4372 215.188 14.6813 215.41 14.8506 215.696C15.0231 215.979 15.1094 216.312 15.1094 216.692C15.1094 216.901 15.0736 217.112 15.002 217.327C14.9336 217.539 14.8376 217.75 14.7139 217.962C14.5934 218.174 14.4518 218.382 14.2891 218.587C14.1296 218.792 13.9587 218.994 13.7764 219.192L11.8721 221.258H15.4365ZM21.2662 217.879V218.963C21.2662 219.546 21.2141 220.037 21.11 220.438C21.0058 220.838 20.8561 221.16 20.6607 221.404C20.4654 221.648 20.2294 221.826 19.9527 221.937C19.6793 222.044 19.3701 222.098 19.025 222.098C18.7516 222.098 18.4993 222.063 18.2682 221.995C18.037 221.927 17.8287 221.818 17.6432 221.668C17.4609 221.515 17.3046 221.316 17.1744 221.072C17.0442 220.828 16.9449 220.532 16.8766 220.184C16.8082 219.835 16.774 219.428 16.774 218.963V217.879C16.774 217.296 16.8261 216.808 16.9303 216.414C17.0377 216.02 17.1891 215.704 17.3844 215.467C17.5797 215.226 17.8141 215.053 18.0875 214.949C18.3642 214.845 18.6734 214.793 19.0152 214.793C19.2919 214.793 19.5458 214.827 19.777 214.896C20.0113 214.961 20.2197 215.066 20.402 215.213C20.5842 215.356 20.7389 215.548 20.8658 215.789C20.996 216.027 21.0953 216.318 21.1637 216.663C21.232 217.008 21.2662 217.413 21.2662 217.879ZM20.358 219.109V217.728C20.358 217.409 20.3385 217.129 20.2994 216.888C20.2636 216.644 20.2099 216.435 20.1383 216.263C20.0667 216.09 19.9755 215.95 19.8648 215.843C19.7574 215.735 19.6321 215.657 19.4889 215.608C19.3489 215.556 19.191 215.53 19.0152 215.53C18.8004 215.53 18.61 215.571 18.4439 215.652C18.2779 215.73 18.138 215.856 18.024 216.028C17.9133 216.201 17.8287 216.427 17.7701 216.707C17.7115 216.987 17.6822 217.327 17.6822 217.728V219.109C17.6822 219.428 17.7001 219.71 17.7359 219.954C17.775 220.198 17.832 220.41 17.9068 220.589C17.9817 220.765 18.0729 220.91 18.1803 221.023C18.2877 221.137 18.4114 221.222 18.5514 221.277C18.6946 221.329 18.8525 221.355 19.025 221.355C19.2464 221.355 19.44 221.313 19.6061 221.229C19.7721 221.144 19.9104 221.012 20.0211 220.833C20.135 220.651 20.2197 220.418 20.275 220.135C20.3303 219.848 20.358 219.507 20.358 219.109Z" fill="#4B5050" fill-opacity="0.7"/>
<line x1="30.5" y1="218.5" x2="295.5" y2="218.5" stroke="#E5E5E5" stroke-linecap="square" stroke-dasharray="3"/>
<path d="M7.46602 247.738V249.228H6.73359V247.738H7.46602ZM7.37813 255.712V257.016H6.65059V255.712H7.37813ZM8.35469 254.169C8.35469 253.974 8.31074 253.798 8.22285 253.642C8.13496 253.485 7.9901 253.342 7.78828 253.212C7.58646 253.082 7.31628 252.961 6.97773 252.851C6.56758 252.724 6.21276 252.569 5.91328 252.387C5.61706 252.204 5.38757 251.978 5.2248 251.708C5.0653 251.438 4.98555 251.111 4.98555 250.727C4.98555 250.326 5.07181 249.981 5.24434 249.691C5.41686 249.402 5.661 249.179 5.97676 249.022C6.29251 248.866 6.66361 248.788 7.09004 248.788C7.42207 248.788 7.71829 248.839 7.97871 248.939C8.23913 249.037 8.45885 249.184 8.63789 249.379C8.82018 249.574 8.95853 249.813 9.05293 250.097C9.15059 250.38 9.19941 250.707 9.19941 251.078H8.30098C8.30098 250.86 8.27494 250.66 8.22285 250.478C8.17077 250.295 8.09264 250.137 7.98848 250.004C7.88431 249.867 7.75736 249.763 7.60762 249.691C7.45788 249.617 7.28535 249.579 7.09004 249.579C6.8166 249.579 6.59036 249.626 6.41133 249.721C6.23555 249.815 6.10534 249.949 6.0207 250.121C5.93607 250.29 5.89375 250.487 5.89375 250.712C5.89375 250.92 5.93607 251.103 6.0207 251.259C6.10534 251.415 6.24857 251.557 6.45039 251.684C6.65547 251.807 6.93704 251.929 7.29512 252.05C7.71504 252.183 8.07148 252.341 8.36445 252.523C8.65742 252.702 8.8804 252.924 9.0334 253.188C9.18639 253.448 9.26289 253.772 9.26289 254.159C9.26289 254.579 9.16849 254.934 8.97969 255.224C8.79089 255.51 8.52559 255.728 8.18379 255.878C7.84199 256.028 7.4416 256.103 6.98262 256.103C6.70592 256.103 6.43249 256.065 6.1623 255.99C5.89212 255.915 5.64798 255.793 5.42988 255.624C5.21178 255.451 5.03763 255.225 4.90742 254.945C4.77721 254.662 4.71211 254.315 4.71211 253.905H5.62031C5.62031 254.182 5.65938 254.411 5.7375 254.594C5.81888 254.773 5.9263 254.916 6.05977 255.023C6.19323 255.128 6.33971 255.202 6.49922 255.248C6.66198 255.29 6.82311 255.312 6.98262 255.312C7.27559 255.312 7.52298 255.266 7.7248 255.175C7.92988 255.08 8.08613 254.947 8.19355 254.774C8.30098 254.602 8.35469 254.4 8.35469 254.169ZM15.2537 251.879V252.963C15.2537 253.546 15.2016 254.037 15.0975 254.438C14.9933 254.838 14.8436 255.16 14.6482 255.404C14.4529 255.648 14.2169 255.826 13.9402 255.937C13.6668 256.044 13.3576 256.098 13.0125 256.098C12.7391 256.098 12.4868 256.063 12.2557 255.995C12.0245 255.927 11.8162 255.818 11.6307 255.668C11.4484 255.515 11.2921 255.316 11.1619 255.072C11.0317 254.828 10.9324 254.532 10.8641 254.184C10.7957 253.835 10.7615 253.428 10.7615 252.963V251.879C10.7615 251.296 10.8136 250.808 10.9178 250.414C11.0252 250.02 11.1766 249.704 11.3719 249.467C11.5672 249.226 11.8016 249.053 12.075 248.949C12.3517 248.845 12.6609 248.793 13.0027 248.793C13.2794 248.793 13.5333 248.827 13.7645 248.896C13.9988 248.961 14.2072 249.066 14.3895 249.213C14.5717 249.356 14.7264 249.548 14.8533 249.789C14.9835 250.027 15.0828 250.318 15.1512 250.663C15.2195 251.008 15.2537 251.413 15.2537 251.879ZM14.3455 253.109V251.728C14.3455 251.409 14.326 251.129 14.2869 250.888C14.2511 250.644 14.1974 250.435 14.1258 250.263C14.0542 250.09 13.963 249.95 13.8523 249.843C13.7449 249.735 13.6196 249.657 13.4764 249.608C13.3364 249.556 13.1785 249.53 13.0027 249.53C12.7879 249.53 12.5975 249.571 12.4314 249.652C12.2654 249.73 12.1255 249.856 12.0115 250.028C11.9008 250.201 11.8162 250.427 11.7576 250.707C11.699 250.987 11.6697 251.327 11.6697 251.728V253.109C11.6697 253.428 11.6876 253.71 11.7234 253.954C11.7625 254.198 11.8195 254.41 11.8943 254.589C11.9692 254.765 12.0604 254.91 12.1678 255.023C12.2752 255.137 12.3989 255.222 12.5389 255.277C12.6821 255.329 12.84 255.355 13.0125 255.355C13.2339 255.355 13.4275 255.313 13.5936 255.229C13.7596 255.144 13.8979 255.012 14.0086 254.833C14.1225 254.651 14.2072 254.418 14.2625 254.135C14.3178 253.848 14.3455 253.507 14.3455 253.109Z" fill="#4B5050" fill-opacity="0.7"/>
<line x1="30.5" y1="252.5" x2="295.5" y2="252.5" stroke="#E5E5E5" stroke-linecap="square" stroke-dasharray="3"/>
<path opacity="0.45" d="M32 253L32 117H38V253H32Z" fill="#4B5050" fill-opacity="0.08"/>
<path d="M30 253L30 128H40V253H30Z" fill="#4B5050" fill-opacity="0.8"/>
<path opacity="0.45" d="M54.8 253L54.8 117H60.8L60.8 253H54.8Z" fill="#4B5050" fill-opacity="0.08"/>
<path d="M52.8 253L52.8 120H62.8L62.8 253H52.8Z" fill="#4B5050" fill-opacity="0.8"/>
<path opacity="0.45" d="M77.6001 253V117H83.6001V253H77.6001Z" fill="#4B5050" fill-opacity="0.08"/>
<path d="M75.6001 253V161H85.6001V253H75.6001Z" fill="#4B5050" fill-opacity="0.8"/>
<path opacity="0.45" d="M101.4 253V117H107.4V253H101.4Z" fill="#4B5050" fill-opacity="0.08"/>
<path d="M99.3999 253V180H109.4V253H99.3999Z" fill="#4B5050" fill-opacity="0.8"/>
<path opacity="0.45" d="M124.2 253V117H130.2V253H124.2Z" fill="#4B5050" fill-opacity="0.08"/>
<path d="M122.2 253V164H132.2V253H122.2Z" fill="#4B5050" fill-opacity="0.8"/>
<path opacity="0.45" d="M147 253V117H153V253H147Z" fill="#4B5050" fill-opacity="0.08"/>
<path d="M145 253V192H155V253H145Z" fill="#4B5050" fill-opacity="0.8"/>
<path opacity="0.45" d="M169.8 253V114H175.8V253H169.8Z" fill="#4B5050" fill-opacity="0.08"/>
<path d="M167.8 253V117H177.8V253H167.8Z" fill="#4B5050" fill-opacity="0.8"/>
<path opacity="0.45" d="M192.6 253V117H198.6V253H192.6Z" fill="#4B5050" fill-opacity="0.08"/>
<path d="M190.6 253V135H200.6V253H190.6Z" fill="#4B5050" fill-opacity="0.8"/>
<path opacity="0.45" d="M216.4 253V117H222.4V253H216.4Z" fill="#4B5050" fill-opacity="0.08"/>
<path d="M214 253V174.415H224V253H214Z" fill="#4B5050" fill-opacity="0.8"/>
<path opacity="0.45" d="M239.2 253V116H245.2V253H239.2Z" fill="#4B5050" fill-opacity="0.08"/>
<path d="M237 253V160H247V253H237Z" fill="#4B5050" fill-opacity="0.8"/>
<path opacity="0.45" d="M262 252V117H268V252H262Z" fill="#4B5050" fill-opacity="0.08"/>
<path d="M260 253V150H270V253H260Z" fill="#4B5050" fill-opacity="0.8"/>
<path opacity="0.45" d="M284.8 253V116H290.8V253H284.8Z" fill="#4B5050" fill-opacity="0.08"/>
<path d="M283 253V164H293V253H283Z" fill="#4B5050" fill-opacity="0.8"/>
</svg>
