<svg width="17" height="17" viewBox="0 0 17 17" fill="none" xmlns="http://www.w3.org/2000/svg">
<path fill-rule="evenodd" clip-rule="evenodd" d="M15.6572 0.404557L16.5904 1.33815C17.1365 1.87756 17.1365 2.75583 16.5904 3.29524L7.44502 12.4444H4.55554V9.55376L11.7447 2.35473L13.7009 0.404557C14.2401 -0.134852 15.118 -0.134852 15.6572 0.404557ZM5.93807 11.0613L6.91275 11.1028L13.7009 4.3049L12.7263 3.32981L5.93807 10.1208V11.0613Z" fill="#999999"/>
<path d="M14.3333 8.88824V13.9993C14.3333 15.1039 13.4379 15.9993 12.3333 15.9993H3C1.89543 15.9993 1 15.1039 1 13.9994V4.66602C1 3.56145 1.89543 2.66602 3 2.66602H8.11111" stroke="#999999" stroke-width="1.4"/>
</svg>
