<svg width="16" height="16" viewBox="0 0 16 16" fill="none" xmlns="http://www.w3.org/2000/svg">
<path fill-rule="evenodd" clip-rule="evenodd" d="M11.1719 4.10251C12.0411 5.99333 11.729 8.21694 10.373 9.79579L15 14.4207L14.4204 15L9.79253 10.3743C7.99851 11.9078 5.40894 12.0787 3.4287 10.7945C1.44847 9.51018 0.549553 7.07676 1.21963 4.81436C1.88971 2.55196 3.96908 0.999819 6.32964 1C8.41146 0.999955 10.3027 2.2117 11.1719 4.10251ZM1.8208 6.32633C1.8208 8.81541 3.83954 10.8332 6.32978 10.8332C8.82003 10.8332 10.8388 8.81541 10.8388 6.32633C10.8388 3.83726 8.82003 1.81946 6.32978 1.81946C3.83954 1.81946 1.8208 3.83726 1.8208 6.32633Z" fill="#808080"/>
<path d="M10.373 9.79579L9.99366 9.47001L9.69161 9.82169L10.0195 10.1494L10.373 9.79579ZM15 14.4207L15.3535 14.7743L15.7073 14.4207L15.3535 14.067L15 14.4207ZM14.4204 15L14.0669 15.3536L14.4204 15.7069L14.7739 15.3536L14.4204 15ZM9.79253 10.3743L10.146 10.0207L9.81906 9.69387L9.46766 9.99423L9.79253 10.3743ZM6.32964 1L6.3296 1.5H6.32965L6.32964 1ZM1.8208 6.32633H1.3208H1.8208ZM10.7176 4.31135C11.5051 6.02459 11.2224 8.03938 9.99366 9.47001L10.7523 10.1216C12.2356 8.39451 12.577 5.96207 11.6262 3.89368L10.7176 4.31135ZM10.0195 10.1494L14.6465 14.7743L15.3535 14.067L10.7264 9.44215L10.0195 10.1494ZM14.6465 14.067L14.0669 14.6464L14.7739 15.3536L15.3535 14.7743L14.6465 14.067ZM14.7739 14.6464L10.146 10.0207L9.43906 10.7279L14.0669 15.3536L14.7739 14.6464ZM9.46766 9.99423C7.84195 11.3838 5.49526 11.5388 3.70077 10.375L3.15664 11.214C5.32262 12.6187 8.15507 12.4317 10.1174 10.7544L9.46766 9.99423ZM3.70077 10.375C1.90634 9.21119 1.09191 7.00623 1.69905 4.95635L0.740219 4.67236C0.00719517 7.14728 0.990596 9.80918 3.15664 11.214L3.70077 10.375ZM1.69905 4.95635C2.30619 2.90643 4.19037 1.49984 6.3296 1.5L6.32968 0.5C3.74778 0.499802 1.47323 2.19749 0.740219 4.67236L1.69905 4.95635ZM6.32965 1.5C8.21627 1.49996 9.93001 2.59808 10.7176 4.31135L11.6262 3.89368C10.6754 1.82532 8.60666 0.499951 6.32963 0.5L6.32965 1.5ZM1.3208 6.32633C1.3208 9.09178 3.56362 11.3332 6.32978 11.3332V10.3332C4.11546 10.3332 2.3208 8.53905 2.3208 6.32633H1.3208ZM6.32978 11.3332C9.09595 11.3332 11.3388 9.09178 11.3388 6.32633H10.3388C10.3388 8.53905 8.5441 10.3332 6.32978 10.3332V11.3332ZM11.3388 6.32633C11.3388 3.56089 9.09595 1.31946 6.32978 1.31946V2.31946C8.5441 2.31946 10.3388 4.11362 10.3388 6.32633H11.3388ZM6.32978 1.31946C3.56362 1.31946 1.3208 3.56089 1.3208 6.32633H2.3208C2.3208 4.11362 4.11546 2.31946 6.32978 2.31946V1.31946Z" fill="#808080"/>
</svg>
