<svg width="18" height="18" viewBox="0 0 18 18" fill="none" xmlns="http://www.w3.org/2000/svg">
<path d="M9 0C4.02304 0 0 4.02304 0 9C0 13.977 4.02304 18 9 18C13.977 18 18 13.977 18 9C18 4.02304 13.977 0 9 0ZM13.3548 7.13364L8.02535 12.4424C7.85945 12.6083 7.65207 12.6912 7.4447 12.6912C7.23733 12.6912 7.00922 12.6083 6.86406 12.4424L4.23041 9.82949C3.89862 9.4977 3.89862 8.97926 4.23041 8.64746C4.56221 8.31567 5.08065 8.31567 5.41244 8.64746L7.4447 10.6797L12.1728 5.95161C12.5046 5.61982 13.023 5.61982 13.3548 5.95161C13.6659 6.28341 13.6659 6.82258 13.3548 7.13364Z" fill="#4B5050"/>
</svg>
